<?xml version="1.0" encoding="UTF-8"?><svg id="Layer_1" xmlns="http://www.w3.org/2000/svg" viewBox="0 0 714.0244 190.4999"><defs><style>.cls-1{fill:#fff;}.cls-1,.cls-2{stroke-width:0px;}.cls-2{fill:#ba67ef;}</style></defs><path class="cls-1" d="m554.735,124.0577c-17.3477-16.9242-45.2187-9.6433-54.7334,11.8312-11.1468,25.1579,5.7458,56.803,34.9542,54.4913,9.0913-.7195,12.7639-4.1496,19.4141-9.2388.3637-.2784.4596-.7035,1.0889-.5397l.7275,8.3346h16.6895v-108.735h-18.1407v43.8565h-.0002Zm-21.5407,49.6093c-23.2455-1.9461-23.3086-40.3947.0618-42.2517,28.5867-2.2714,28.4765,44.6409-.0618,42.2517h0Z"/><path class="cls-1" d="m270.8309,118.2489l-6.3396,4.359v-42.4067h-18.1408v108.735h18.1408v-42.2255c0-8.2437,6.6926-14.5409,14.6804-15.0539,10.9034-.7002,16.3165,6.6082,16.5182,16.8697l.0035,40.4097h18.1408l-.0037-46.2087c-1.5391-23.0665-22.4773-34.2967-42.9995-24.4787h0Z"/><path class="cls-1" d="m645.2452,122.2554c-10.7074-8.2972-26.2514-9.6607-38.7263-4.6368-30.4221,12.2516-30.037,60.7692,1.997,70.6877,18.6921,5.7875,42.9196.0806,48.5317-20.7527l-16.8122-3.2893c-3.609,8.6928-12.343,10.9463-21.0972,10.1683-8.7986-.782-15.3684-7.5843-16.151-16.3045h54.0595c2.6201-13.0408-1.0561-27.546-11.8015-35.8727h0Zm-41.5323,21.7371c3.3792-18.113,32.2275-19.4216,34.8302,0h-34.8302Z"/><path class="cls-1" d="m151.3723,115.4647c-18.0402-3.0485-36.6915,3.1806-41.7861,22.189l17.7629,3.4405c2.2638-14.0039,27.1883-15.6572,29.3616-.7573-17.4326,5.0073-50.196,6.4713-46.3758,32.4341,2.9739,20.2114,31.8802,22.3025,44.553,10.1479.6945-.6661,1.4311-1.8164,2.1101-2.5797.2148-.2414-.0212-.6984.8276-.4623l.7275,9.0594h16.3267v-49.112c0-12.6263-11.8631-22.392-23.5074-24.3597h-.0001Zm5.7294,43.9319c0,3.1944-3.5679,8.9447-5.9973,11.0438-5.8111,5.0212-22.314,8.5042-22.322-2.7075-.0051-7.1695,7.9246-8.3365,13.3658-9.8642,4.9382-1.3865,10.0083-2.3739,14.9535-3.7277v5.2555h0Z"/><path class="cls-1" d="m449.607,115.9888c-4.6333,1.3023-8.9322,3.8676-12.2456,7.3409-.8735.1583-.4348-.4014-.5262-.9102-.3405-1.8935-.5476-3.8174-.8065-5.7242l-.4763-.6115h-16.1453v72.8525h18.5037v-44.7626c0-2.5722,3.0791-7.3868,5.1097-9.031,9.8005-7.9355,25.7296-2.1848,25.7296,11.2057v42.5879h18.1408l-.0038-46.9335c-1.4068-19.7197-18.189-31.38-37.2799-26.014h-.0002Z"/><path class="cls-1" d="m708.7589,114.9824c-8.6959-.5806-16.7869,2.87-21.9607,9.8002l-1.092-8.6988h-17.0524v72.8525h18.5036v-41.1381c0-2.101,2.323-6.9063,3.6901-8.6369,5.0749-6.4249,13.4558-6.8187,20.9492-5.3458l2.2276-17.1806c-.2092-1.2059-4.0859-1.5736-5.2654-1.6524h0Z"/><path class="cls-1" d="m389.9212,83.5442c-7.3692,2.5073-9.3544,12.4153-4.1246,17.913,5.4031,5.6795,16.5652,3.5103,18.8529-4.2872,2.712-9.2437-5.7097-16.6943-14.7283-13.6258Z"/><path class="cls-1" d="m384.9423,116.0838h-31.5631v-11.7796c0-.2626.6406-2.3627.8051-2.8202,2.525-7.0196,10.8488-7.1175,16.9553-5.3445l3.6327-15.5613c-13.3127-4.0745-28.8915-1.8023-36.0941,11.2145-1.6265,2.9394-3.1309,7.3611-3.4398,10.6992-.4005,4.3266.2966,9.2052,0,13.5919h-22.7359c4.7006,4.2927,8.1682,9.875,10.1422,16.3103h12.5937v56.5422h18.1408v-56.5422h31.5631v56.5422h18.1408v-72.8525s-18.1408,0-18.1408,0Z"/><path class="cls-1" d="m105.0074,100.413c-9.8519-32.5562-57.1389-36.3259-77.0867-11.4089-8.2637,10.3223-11.3085,24.1096-10.5333,37.1394-1.6024.2549-6.7131-4.5847-7.6011-3.9713L.0191,139.4427c-.1064.4761.2538.5761.5478.7881,2.0522,1.48,5.7656,3.3718,8.1069,4.5885,3.9575,2.0564,8.0395,3.8913,12.2712,5.3227,2.8427,11.2637,8.3399,28.3545,13.4113,38.7943h21.9503l-12.7946-33.4289c4.2551.4577,8.5381.7166,12.7946.6891v-18.4907c-6.1438.1068-12.3033-.7698-17.4662-2.1827-1.7792-13.3581-1.5772-29.6556,9.7464-38.922,8.6357-7.0669,23.7443-7.4794,31.8047.6757,5.3221,5.3846,6.7733,13.6619,5.4067,20.913-2.082,11.0475-10.4846,16.5135-20.3725,18.5505l6.239,17.8346c5.2878-1.1774,10.4177-3.0604,15.2664-5.895,16.9581-9.9142,23.7421-29.5443,18.0764-48.2669h-.0001Z"/><path class="cls-2" d="m152.0299,0c-27.908,0-50.532,22.624-50.532,50.532s22.624,50.532,50.532,50.532,50.532-22.6239,50.532-50.532S179.938,0,152.0299,0Zm5.3725,61.2586h-5.7159v-14.7985c0-.2047-.3538-1.2335-.4707-1.4722-1.2514-2.5543-5.6829-2.3209-6.8676.1932-.1265.2685-.4354,1.0322-.4354,1.2789v14.7985h-5.7159v-14.2272c0-.6993-.3752-1.935-.8004-2.5139-1.4617-1.9904-5.3049-1.6636-6.4937.4791-.1213.2186-.4796,1.0485-.4796,1.2348v15.0271h-5.8302v-22.7978l.1714-.1714h4.9157c.2561.0833.3589,1.549.4052,1.8823.0226.1634-.108.337.1648.288,3.0308-3.6921,9.6086-3.4525,12.1204.6879.1678.0014.9595-.9893,1.1979-1.2025,3.8789-3.4689,10.6582-2.6157,12.9388,2.2673.2996.6414.895,2.4524.895,3.105v15.9413h.0002Zm26.0646-21.4836l-12.1749,31.5397h-5.8873l3.8672-10.1993-9.6974-22.826h6.2303l6.5161,15.4282,5.5369-15.2643c.101-.1472.2454-.1482.4023-.1693,1.5645-.2097,3.5905.1669,5.2068.0053v1.4856h0Z"/><path class="cls-1" d="m236.7277,132.3941v-16.3103h-24.4799v-16.3102h-17.4811v16.2629h-21.6733c5.2606,4.2181,9.4214,9.8212,11.259,16.3576h9.3919v37.5135c0,.8302.7184,3.8137.9858,4.8143,4.838,18.0999,27.305,18.4568,41.4209,11.6318l-3.7696-14.8131c-.5412-.8179-1.6511.3002-2.3622.5352-5.3976,1.7842-14.0845,2.8912-16.9531-3.3481-.1397-.304-.8182-2.3157-.8182-2.4446v-33.889h24.4799-.0001Z"/></svg>