<?xml version="1.0" encoding="UTF-8"?><svg id="Layer_1" xmlns="http://www.w3.org/2000/svg" viewBox="0 0 500.8877 543.9067"><defs><style>.cls-1{fill:#ba67ef;stroke-width:0px;}</style></defs><path class="cls-1" d="m491.703,129.3917C445.5708-23.0543,224.1471-40.7062,130.7401,75.9687c-38.6954,48.3346-52.9525,112.8946-49.3229,173.9073-7.5034,1.1935-31.4346-21.4682-35.5927-18.5956L.0893,312.1503c-.4982,2.2292,1.1886,2.6977,2.5651,3.6903,9.6095,6.9301,26.9976,15.7888,37.9612,21.4859,18.531,9.6292,37.6454,18.2212,57.4608,24.9238,13.3109,52.743,39.0521,132.7715,62.7989,181.6565h102.7836l-59.9115-156.5326c19.9246,2.1432,39.9801,3.3556,59.9115,3.2267v-86.5835c-28.7687.4999-57.6108-3.6048-81.7867-10.2205-8.3314-62.55-7.3854-138.8642,45.638-182.2544,40.4373-33.0911,111.1838-35.0228,148.9275,3.1638,24.9212,25.2139,31.7164,63.9724,25.3173,97.9264-9.7492,51.7305-49.0948,77.3256-95.3953,86.8639l29.2142,83.5115c24.7603-5.5131,48.7816-14.3306,71.4856-27.6038,79.4074-46.4237,111.1735-138.3426,84.6435-226.0124Z"/></svg>